<?xml version="1.0" encoding="utf-8"?>
<!-- Generator: Adobe Illustrator 27.5.0, SVG Export Plug-In . SVG Version: 6.00 Build 0)  -->
<svg version="1.1" id="Layer_1" xmlns="http://www.w3.org/2000/svg" xmlns:xlink="http://www.w3.org/1999/xlink" x="0px" y="0px"
	 viewBox="0 0 2331.278 2000" style="enable-background:new 0 0 2331.278 2000;" xml:space="preserve">
<g>
	<rect x="0" y="0" style="fill:#FFFFFF;" width="2331.278" height="2000"/>
	<path style="fill:#DCF4FF;" d="M223.725,1505.94c30.891-149.507,29.829-181.431-4.617-303.9
		c-31.938-113.552-93.559-383.548,7.609-621.999c103.888-244.863,256.931-246.69,365.252-213.059
		c79.494,24.68,188.254,10.717,322.664-64.993c134.41-75.71,377.49-196.047,626.436-73.995
		c215.245,105.529,226.083,272.405,312.37,365.15c86.288,92.745,182.838,59.718,264.233,275.573
		c81.334,215.693,66.096,769.942-226.467,898.047c-435.389,190.644-558.585-176.702-793.893-36.508s-659.154,81.926-659.154,81.926
		S167.93,1775.978,223.725,1505.94z"/>
	<g>
		<g>
			<path style="fill:#49263E;" d="M934.471,1434.476c-0.028,0-0.056,0-0.084-0.001c-1.59-0.046-2.842-1.372-2.795-2.962
				c3.813-131.792-16.142-733.683-35.612-1003.484c-0.114-1.586,1.078-2.965,2.664-3.079c1.569-0.127,2.968,1.078,3.08,2.665
				c19.478,269.923,39.442,872.167,35.624,1004.065C937.302,1433.241,936.021,1434.476,934.471,1434.476z"/>
		</g>
		<g>
			<path style="fill:#49263E;" d="M1306.021,1534.437c0,0-0.047,0-0.071-0.001c-1.59-0.038-2.848-1.358-2.81-2.948
				c0.169-6.984,16.165-703.085-36.846-1103.508c-0.208-1.577,0.9-3.024,2.476-3.232c1.601-0.221,3.024,0.9,3.234,2.476
				c53.069,400.869,37.062,1097.412,36.895,1104.402C1308.861,1533.193,1307.578,1534.437,1306.021,1534.437z"/>
		</g>
		<g>
			<path style="fill:#49263E;" d="M679.327,1115.82c-1.41,0-2.641-1.036-2.847-2.473c-0.225-1.574,0.87-3.032,2.444-3.257
				c304.608-43.512,656.755-19.648,845.941-6.828c49.682,3.367,88.923,6.026,115.667,6.8c1.59,0.046,2.842,1.372,2.795,2.962
				c-0.047,1.59-1.425,2.874-2.96,2.795c-26.858-0.778-66.148-3.44-115.892-6.812c-188.973-12.806-540.726-36.645-844.738,6.783
				C679.601,1115.811,679.462,1115.82,679.327,1115.82z"/>
		</g>
		<g>
			<path style="fill:#49263E;" d="M636.672,782.071c-1.41,0-2.641-1.036-2.848-2.473c-0.223-1.574,0.87-3.032,2.445-3.257
				c400.278-57.158,1051.786-61.122,1058.319-61.156h0.015c1.584,0,2.872,1.279,2.88,2.864c0.008,1.591-1.275,2.886-2.865,2.894
				c-6.531,0.034-657.649,3.997-1057.535,61.098C636.946,782.062,636.807,782.071,636.672,782.071z"/>
		</g>
		<g>
			<path style="fill:#FF424D;" d="M1002.331,1025.582c-1.397,0-2.805-0.467-3.967-1.426c-2.658-2.192-3.037-6.125-0.845-8.786
				c1.299-1.575,130.454-158.176,179.886-213.956c2.287-2.58,6.233-2.816,8.811-0.532c2.579,2.286,2.818,6.23,0.532,8.81
				c-49.288,55.615-178.301,212.045-179.598,213.619C1005.916,1024.807,1004.131,1025.582,1002.331,1025.582z"/>
		</g>
		<g>
			<path style="fill:#FF424D;" d="M1219.512,1029.637c-1.127,0-2.266-0.305-3.294-0.945c-3.086-1.923-77.228-48.868-218.466-201.74
				c-2.339-2.532-2.184-6.48,0.349-8.818c2.533-2.339,6.481-2.183,8.818,0.349c139.844,151.36,215.16,199.153,215.904,199.618
				c2.923,1.826,3.815,5.674,1.991,8.597C1223.628,1028.595,1221.594,1029.637,1219.512,1029.637z"/>
		</g>
		<g>
			<path style="fill:#FF424D;" d="M1405.537,1019.425c-1.397,0-2.804-0.467-3.967-1.426c-2.658-2.192-3.037-6.125-0.845-8.786
				c1.299-1.575,130.454-158.175,179.886-213.956c2.289-2.58,6.233-2.816,8.811-0.531c2.579,2.286,2.818,6.23,0.532,8.81
				c-49.288,55.617-178.301,212.045-179.598,213.619C1409.122,1018.651,1407.337,1019.425,1405.537,1019.425z"/>
		</g>
		<g>
			<path style="fill:#FF424D;" d="M1622.718,1023.482c-1.127,0-2.266-0.305-3.294-0.945c-3.086-1.923-77.228-48.869-218.467-201.741
				c-2.339-2.532-2.184-6.48,0.349-8.819c2.533-2.337,6.481-2.182,8.818,0.35c139.844,151.36,215.16,199.154,215.904,199.619
				c2.923,1.826,3.815,5.674,1.991,8.598C1626.835,1022.44,1624.801,1023.482,1622.718,1023.482z"/>
		</g>
		<g>
			<path style="fill:#FF424D;" d="M983.611,672.069c-1.397,0-2.804-0.467-3.967-1.426c-2.658-2.192-3.037-6.125-0.846-8.786
				c1.299-1.575,130.454-158.175,179.886-213.956c2.289-2.58,6.233-2.816,8.811-0.531c2.579,2.286,2.818,6.23,0.532,8.81
				c-49.288,55.617-178.3,212.045-179.598,213.619C987.195,671.295,985.41,672.069,983.611,672.069z"/>
		</g>
		<g>
			<path style="fill:#FF424D;" d="M1200.791,676.126c-1.127,0-2.266-0.305-3.294-0.945c-3.086-1.923-77.228-48.869-218.466-201.741
				c-2.34-2.532-2.184-6.48,0.349-8.819c2.533-2.337,6.481-2.182,8.818,0.35c139.844,151.36,215.16,199.154,215.904,199.619
				c2.922,1.826,3.815,5.675,1.991,8.598C1204.908,675.084,1202.874,676.126,1200.791,676.126z"/>
		</g>
		<g>
			<path style="fill:#FF424D;" d="M679.327,1407.673c-1.397,0-2.804-0.467-3.967-1.426c-2.658-2.192-3.037-6.125-0.845-8.786
				c1.299-1.575,130.454-158.176,179.886-213.956c2.289-2.58,6.231-2.816,8.811-0.531c2.579,2.286,2.818,6.23,0.532,8.81
				c-49.288,55.615-178.3,212.045-179.598,213.619C682.912,1406.899,681.127,1407.673,679.327,1407.673z"/>
		</g>
		<g>
			<path style="fill:#FF424D;" d="M896.508,1411.73c-1.127,0-2.266-0.305-3.294-0.945c-3.086-1.923-77.228-48.869-218.466-201.741
				c-2.339-2.532-2.184-6.48,0.349-8.818c2.533-2.339,6.481-2.182,8.818,0.349c139.844,151.36,215.16,199.154,215.904,199.619
				c2.923,1.826,3.815,5.674,1.991,8.598C900.625,1410.687,898.591,1411.73,896.508,1411.73z"/>
		</g>
		<g>
			<path style="fill:#4CB7D8;" d="M1489.427,670.752c-21.836,0.001-41.803-8.514-57.692-24.932
				c-28.496-29.443-39.815-80.033-27.529-123.027c10.565-36.966,36.426-62.334,72.816-71.431c3.337-0.835,6.732,1.195,7.568,4.54
				c0.836,3.344-1.198,6.733-4.542,7.568c-31.88,7.971-54.552,30.257-63.841,62.753c-11.12,38.913-1.048,84.524,24.496,110.917
				c12.688,13.11,34.788,26.992,67.987,18.664c36.034-9.037,48.879-32.787,53.309-51.12c8.445-34.958-6.771-81.483-34.641-105.919
				c-11.784-10.33-30.536-20.825-52.975-12.17c-3.219,1.243-6.827-0.361-8.068-3.576c-1.241-3.216,0.36-6.828,3.577-8.069
				c22.05-8.506,45.379-3.381,65.695,14.43c31.573,27.681,48.143,78.511,38.546,118.235c-7.405,30.648-29.569,52.062-62.405,60.296
				C1504.143,669.812,1496.68,670.752,1489.427,670.752z"/>
		</g>
		<g>
			<path style="fill:#4CB7D8;" d="M1112.286,1361.001c-21.836,0.001-41.802-8.514-57.692-24.932
				c-28.496-29.443-39.815-80.033-27.529-123.027c10.566-36.966,36.426-62.334,72.817-71.431c3.337-0.835,6.732,1.195,7.568,4.54
				c0.836,3.344-1.198,6.733-4.542,7.568c-31.88,7.971-54.552,30.257-63.841,62.752c-11.12,38.913-1.048,84.524,24.496,110.917
				c12.688,13.11,34.788,26.992,67.988,18.664c36.034-9.037,48.879-32.787,53.309-51.12c8.445-34.958-6.771-81.483-34.641-105.919
				c-11.784-10.33-30.536-20.825-52.975-12.17c-3.219,1.243-6.828-0.361-8.068-3.576c-1.241-3.216,0.36-6.828,3.577-8.069
				c22.05-8.506,45.379-3.381,65.695,14.43c31.573,27.681,48.143,78.511,38.546,118.235c-7.405,30.648-29.569,52.061-62.405,60.296
				C1127.002,1360.061,1119.539,1361.001,1112.286,1361.001z"/>
		</g>
		<g>
			<path style="fill:#4CB7D8;" d="M789.282,1027.401c-21.836,0.001-41.802-8.513-57.692-24.932
				c-28.496-29.443-39.815-80.033-27.529-123.027c10.565-36.966,36.426-62.333,72.817-71.431c3.337-0.835,6.732,1.195,7.568,4.54
				c0.836,3.344-1.198,6.733-4.542,7.568c-31.88,7.971-54.552,30.257-63.841,62.753c-11.12,38.913-1.048,84.524,24.496,110.917
				c12.688,13.11,34.786,26.992,67.987,18.664c36.034-9.037,48.879-32.787,53.309-51.121c8.445-34.958-6.771-81.483-34.643-105.919
				c-11.78-10.327-30.528-20.828-52.974-12.169c-3.219,1.24-6.827-0.362-8.068-3.576c-1.241-3.216,0.36-6.828,3.577-8.069
				c22.042-8.507,45.379-3.384,65.695,14.429c31.573,27.681,48.142,78.511,38.546,118.235
				c-7.405,30.649-29.567,52.063-62.405,60.297C803.998,1026.46,796.535,1027.401,789.282,1027.401z"/>
		</g>
	</g>
	<g>
		<g>
			<g>
				<path style="fill:#E36A45;" d="M1669.101,1385.373c-54.688-1.713,53.83,161.461,53.83,161.461s64.421,31.865,70.297,3.341
					s13.672-192.55,8.876-196.057C1802.104,1354.118,1723.789,1387.086,1669.101,1385.373z"/>
			</g>
		</g>
		<g>
			<g>
				<g>
					<g>
						<path style="fill:#E36A45;" d="M1678.968,1593.575l-6.782-28.859l-35.719,34.972
							C1638.706,1599.727,1678.968,1593.575,1678.968,1593.575z"/>
					</g>
				</g>
				<g>
					<g>
						<g>
							<path style="fill:#FC4F68;" d="M1584.349,1578.786c-2.243,3.795,6.213,15.522,8.711,17.857
								c2.499,2.334,33.17-3.541,33.17-3.541l-12.009-35.746C1614.222,1557.355,1586.593,1574.99,1584.349,1578.786z"/>
						</g>
					</g>
				</g>
				<g>
					<g>
						<g>
							<path style="fill:#E36A45;" d="M1602.215,1582.483c0.325,20.334,50.33,22.321,68.672,7.695
								c18.343-14.626-2.048-65.059-2.048-65.059S1601.635,1546.208,1602.215,1582.483z"/>
						</g>
					</g>
				</g>
				<g>
					<g>
						<g>
							<path d="M1635.223,1540.656l-1.24-1.814c-1.422,0.971-34.785,24.005-32.958,42.19c1.848,18.399,29.681,20.62,30.824,20.771
								l0.289-2.179c-0.262-0.035-27.251-2.144-28.925-18.812C1601.514,1563.917,1634.886,1540.887,1635.223,1540.656z"/>
						</g>
					</g>
				</g>
				<g>
					<g>
						<g>
							<path d="M1614.82,1558.278l-1.195-1.845c-0.074,0.048-7.482,4.849-14.834,9.87c-15.252,10.413-15.419,11.564-15.529,12.326
								c-0.379,2.626,2.681,13.614,9.104,18.865l1.392-1.702c-5.778-4.724-8.474-14.657-8.331-16.735
								c0.007-0.01,0.014-0.021,0.022-0.032C1586.87,1576.986,1601.511,1566.899,1614.82,1558.278z"/>
						</g>
					</g>
				</g>
			</g>
			<g>
				<g>
					<g>
						<path style="fill:#E36A45;" d="M1691.656,1639.047l-4.354-18.531l-22.936,22.456
							C1665.804,1642.996,1691.656,1639.047,1691.656,1639.047z"/>
					</g>
				</g>
				<g>
					<g>
						<g>
							<path style="fill:#FC4F68;" d="M1630.901,1629.55c-1.44,2.437,3.989,9.967,5.594,11.466
								c1.604,1.499,21.299-2.274,21.299-2.274l-7.711-22.953C1650.083,1615.789,1632.342,1627.113,1630.901,1629.55z"/>
						</g>
					</g>
				</g>
				<g>
					<g>
						<g>
							<path style="fill:#E36A45;" d="M1642.373,1631.924c0.209,13.057,32.317,14.333,44.095,4.941
								c11.778-9.391-1.315-41.775-1.315-41.775S1642.001,1608.632,1642.373,1631.924z"/>
						</g>
					</g>
				</g>
				<g>
					<g>
						<g>
							<path d="M1663.568,1605.067l-0.796-1.165c-0.913,0.624-22.336,15.414-21.163,27.09c1.187,11.814,19.058,13.24,19.792,13.338
								l0.186-1.399c-0.169-0.022-17.498-1.376-18.573-12.079C1641.923,1620.003,1663.351,1605.215,1663.568,1605.067z"/>
						</g>
					</g>
				</g>
				<g>
					<g>
						<g>
							<path d="M1650.467,1616.382l-0.767-1.185c-0.048,0.031-4.804,3.114-9.525,6.337c-9.793,6.686-9.901,7.426-9.971,7.915
								c-0.244,1.686,1.721,8.741,5.845,12.113l0.894-1.092c-3.71-3.033-5.441-9.411-5.349-10.746
								c0.004-0.007,0.009-0.014,0.014-0.021C1632.519,1628.394,1641.921,1621.918,1650.467,1616.382z"/>
						</g>
					</g>
				</g>
			</g>
			<g>
				<g>
					<path style="fill:#E36A45;" d="M1660.506,1519.014l-3.01-29.492l-39.924,30.083
						C1619.787,1519.932,1660.506,1519.014,1660.506,1519.014z"/>
				</g>
			</g>
			<g>
				<g>
					<g>
						<path style="fill:#FC4F68;" d="M1568.578,1492.168c-2.713,3.475,4.163,16.193,6.34,18.829
							c2.177,2.637,33.35,0.759,33.35,0.759l-7.307-36.994C1600.961,1474.761,1571.292,1488.693,1568.578,1492.168z"/>
					</g>
				</g>
			</g>
			<g>
				<g>
					<g>
						<path style="fill:#E36A45;" d="M1585.82,1498.134c-2.295,20.207,47.038,28.614,67.11,16.471s6.344-64.781,6.344-64.781
							S1589.914,1462.087,1585.82,1498.134z"/>
					</g>
				</g>
			</g>
			<g>
				<g>
					<g>
						<path d="M1623.937,1460.904l-0.996-1.959c-1.535,0.78-37.586,19.328-38.115,37.596c-0.536,18.484,26.779,24.269,27.893,24.566
							l0.567-2.124c-0.256-0.068-26.748-5.634-26.263-22.379C1587.515,1479.633,1623.573,1461.089,1623.937,1460.904z"/>
					</g>
				</g>
			</g>
			<g>
				<g>
					<g>
						<path d="M1569.636,1492.546c1.673-1.838,17.491-9.956,31.799-16.792l-0.948-1.984c-0.08,0.038-8.044,3.846-15.981,7.878
							c-16.465,8.363-16.779,9.483-16.986,10.224c-0.714,2.556,0.906,13.845,6.6,19.879l1.599-1.508
							c-5.122-5.428-6.517-15.625-6.108-17.668C1569.619,1492.565,1569.627,1492.556,1569.636,1492.546z"/>
					</g>
				</g>
			</g>
		</g>
		<g>
			<g>
				
					<rect x="1855.222" y="1297.463" transform="matrix(0.9542 -0.2991 0.2991 0.9542 -318.3644 616.9741)" width="1.934" height="101.948"/>
			</g>
		</g>
		<g>
			<g>
				<polygon style="fill:#FC9168;" points="1705.537,1693.959 1733.176,2000 1992.926,2000 1940.233,1722.179 1936.626,1689.926 
									"/>
			</g>
		</g>
		<g>
			<path style="fill:#FE9F73;" d="M1749.354,1287.261l0.458-0.03C1749.797,1282.983,1749.701,1262.325,1749.354,1287.261z"/>
		</g>
		<g>
			<g>
				<polygon style="fill:#FE9F73;" points="1645.499,1345.664 1645.904,1344.891 1626.409,1329.953 1625.897,1330.619 				"/>
			</g>
			<path style="fill:#FC9168;" d="M1937.246,1596.359c-0.153,17.185-0.315,35.223-0.485,52.013
				c-0.881,88.378-1.879,165.099-1.879,165.099l-193.401,37.884c0,0-39.78-185.393-57.9-230.297
				c-18.111-44.894-76.748-286.354-76.748-286.354l15.208-6.067l0.836-0.332l2.283,1.753l0.737,0.557l4.242,3.254l0.018,0.018
				l0.018,0.018l0.045,0.036l10.313-13.452l10.735,3.445l2.164,1.431l2.124,0.962c6.822,4.359,16.016,12.241,27.368,26.415
				c0.971,1.214,1.942,2.526,2.921,3.928c0.405,0.584,0.818,1.186,1.223,1.807c5.267,7.936,10.561,18.38,15.648,29.966
				c0.252,0.566,0.503,1.133,0.746,1.708c0.252,0.566,0.494,1.132,0.737,1.699c1.132,2.642,2.247,5.33,3.352,8.053v0.009
				c0.333,0.809,0.656,1.609,0.98,2.418c0.251,0.629,0.503,1.249,0.746,1.878c16.628,42.081,29.669,90.409,29.669,90.409
				c6.741-6.561,16.479-21.68,14.281-53.763l108.531,90.833C1861.759,1531.686,1937.246,1596.35,1937.246,1596.359z"/>
			<path style="fill:#FE9F73;" d="M1937.462,1571.786c0,0,0,0.009,0,0.018l-0.009-0.009L1937.462,1571.786z"/>
			<path style="fill:#FC9168;" d="M1937.866,1513.239l-0.97-0.827l-179.85-153.232c0-1.078-7.341-68.67-7.241-71.034v-0.009
				c0.009-0.126,0.009-0.189,0.009-0.189s-0.225,0-0.647-0.009c-2.571-0.054-12.628-0.261-26.523-0.719
				c-0.225-0.009-0.44-0.009-0.665-0.018c-0.44-0.018-0.881-0.027-1.33-0.045c-12.547-0.422-27.953-1.034-43.726-1.896
				c-2.364-0.135-4.745-0.27-7.118-0.413l-1.222-1.034l-53.694-45.748l-1.007-0.854c60.111-6.885,174.023-19.674,181.214-18.596
				c9.806,1.483,41.677,66.699,53.685,101.689c11.999,34.99,85.915,33.776,88.539,69.081
				C1938.181,1401.043,1938.217,1451.232,1937.866,1513.239z"/>
		</g>
		<g>
			<g>
				<path d="M1576.572,1240.547l0.566-0.072l-0.755,0.89c0.018-0.081,0.027-0.135,0.036-0.162L1576.572,1240.547z"/>
				<path d="M1750.819,1287.005l-0.036,0.989c0,0.063-0.341,0.117-0.979,0.153c-6.381,0.396-42.935-0.359-78.95-2.4l-1.052-0.899
					l-1.222-1.034c40.05,2.409,80.648,3.164,81.251,3.173L1750.819,1287.005z"/>
				<path d="M1938.819,1514.057c0,0.467-0.009,0.935,0,1.402c-0.009,0.467-0.009,0.944-0.009,1.42
					c-0.054,7.856-0.108,15.873-0.162,24.007c-0.009,1.061-0.018,2.121-0.018,3.191c-0.054,7.658-0.117,15.405-0.179,23.198
					c0,0.521-0.009,1.043-0.009,1.573c-0.009,0.593-0.009,1.196-0.018,1.798c0,0.656-0.009,1.313-0.018,1.969
					c-0.063,8.44-0.135,16.915-0.216,25.373v0.009c-0.144,17.05-0.305,34.001-0.467,50.386l-0.961-0.009l-0.971-0.018
					c0.171-16.897,0.332-34.406,0.494-51.995c0.063-7.802,0.126-15.621,0.189-23.414c0.009-0.602,0.009-1.204,0.018-1.807v-0.171
					c0.009-0.467,0.009-0.926,0.009-1.393c0.063-7.792,0.125-15.549,0.18-23.215c0.018-2.382,0.036-4.746,0.054-7.109
					c0.054-8.143,0.108-16.16,0.153-24.016c0-0.476,0.009-0.953,0.009-1.42v-1.402c0.35-61.154,0.323-111.342-0.539-122.954
					c-1.312-17.634-21.157-25.912-42.171-34.666c-19.854-8.278-40.373-16.834-46.323-34.163
					c-5.932-17.302-16.771-42.144-27.611-63.293c-13.904-27.125-22.191-37.291-25.301-37.758
					c-7.01-1.061-119.736,11.585-180.063,18.488l-1.007-0.854l-1.016-0.863c60.03-6.876,174.985-19.8,182.373-18.686
					c10.956,1.654,43.241,69.647,54.448,102.336c5.672,16.502,25.786,24.896,45.245,33.003c21.571,8.997,41.955,17.49,43.348,36.32
					C1939.161,1401.079,1939.178,1452.121,1938.819,1514.057z"/>
			</g>
		</g>
		<g>
			<g>
				<path d="M1728.875,1501.81l1.09,1.597c0.891-0.607,21.831-15.122,23.263-36.708l-1.93-0.128
					C1749.929,1487.206,1729.086,1501.666,1728.875,1501.81z"/>
			</g>
		</g>
		<g>
			<g>
				<g>
					<g>
						<g>
							
								<rect x="1762.289" y="1162.238" transform="matrix(0.6485 -0.7612 0.7612 0.6485 -460.0516 1869.0743)" style="fill:#4CB7D8;" width="63.221" height="540.932"/>
						</g>
					</g>
				</g>
				<g>
					<g>
						<g>
							
								<rect x="1781.742" y="1162.238" transform="matrix(0.6485 -0.7612 0.7612 0.6485 -460.0511 1869.0769)" style="fill:#3E95B0;" width="24.316" height="540.931"/>
						</g>
					</g>
				</g>
				<g>
					<g>
						<g>
							
								<rect x="1931.146" y="1568.605" transform="matrix(0.6485 -0.7612 0.7612 0.6485 -510.2097 2048.1721)" style="fill:#FFFFFF;" width="63.221" height="15.922"/>
						</g>
					</g>
				</g>
				<g>
					<g>
						<g>
							<path style="fill:#FFCD70;" d="M2021.814,1626.881L2021.814,1626.881c-11.322,13.289-31.273,14.884-44.562,3.562
								l-28.935-24.652l41-48.123l28.935,24.652C2031.541,1593.642,2033.136,1613.593,2021.814,1626.881z"/>
						</g>
					</g>
				</g>
				<g>
					<g>
						<g>
							<path style="fill:#F7D6B2;" d="M1527.119,1205.412l40.404,75.95l0,0c4.016,3.422,10.095,2.88,13.579-1.208
								c3.484-4.089,3.052-10.177-0.964-13.599c4.016,3.422,10.802,2.052,15.156-3.059c4.355-5.111,4.629-12.028,0.613-15.45
								c4.016,3.421,10.095,2.88,13.579-1.208c3.484-4.089,3.052-10.177-0.964-13.599l0,0L1527.119,1205.412z"/>
						</g>
					</g>
				</g>
				<g>
					<g>
						<g>
							<path style="fill:#4CB7D8;" d="M1567.522,1281.362c0,0,13.398-2.96,12.615-14.807l8.583,7.312l-12.615,14.807
								L1567.522,1281.362z"/>
						</g>
					</g>
				</g>
				<g>
					<g>
						<g>
							<path style="fill:#4CB7D8;" d="M1595.907,1248.046c0,0,13.398-2.96,12.615-14.807l8.582,7.312l-12.615,14.807
								L1595.907,1248.046z"/>
						</g>
					</g>
				</g>
				<g>
					<g>
						<g>
							<path style="fill:#3E95B0;" d="M1580.138,1266.555c0,0,14.909-1.14,15.769-18.509l9.354,7.969l-15.769,18.509
								L1580.138,1266.555z"/>
						</g>
					</g>
				</g>
				<g>
					<g>
						<g>
							<path style="fill:#4CB7D8;" d="M1540.538,1230.638c0,0,11.963-2.436,13.618-15.983l-27.037-9.242L1540.538,1230.638z"/>
						</g>
					</g>
				</g>
			</g>
			<g>
				<g>
					<g>
						<path d="M2022.636,1627.576c10.803-12.796,9.213-24.671,5.977-32.379c-3.477-8.282-9.406-13.474-9.657-13.691
							l-409.892-349.219l-0.194-0.066l-83.981-28.708l26.021,48.913l1.901-1.011l-23.461-44.103l78.631,26.879l409.573,348.948
							c0.051,0.044,5.833,5.121,9.102,12.959c4.332,10.383,2.426,20.506-5.665,30.09L2022.636,1627.576z"/>
					</g>
				</g>
			</g>
			<g>
				<g>
					<g>
						
							<rect x="1766.379" y="1295.931" transform="matrix(0.649 -0.7608 0.7608 0.649 -483.961 1854.1805)" width="2.153" height="311.288"/>
					</g>
				</g>
			</g>
			<g>
				<g>
					<g>
						
							<rect x="1923.912" y="1540.526" transform="matrix(0.1822 -0.9833 0.9833 0.1822 47.6907 3162.3555)" width="2.153" height="23.963"/>
					</g>
				</g>
			</g>
			<g>
				<g>
					<g>
						
							<rect x="1988.647" y="1606.215" transform="matrix(0.1822 -0.9833 0.9833 0.1822 41.2037 3275.5825)" width="2.153" height="13.614"/>
					</g>
				</g>
			</g>
			<g>
				<g>
					<g>
						
							<rect x="1996.499" y="1615.135" transform="matrix(0.1821 -0.9833 0.9833 0.1821 39.0215 3290.7939)" width="2.153" height="13.614"/>
					</g>
				</g>
			</g>
			<g>
				<g>
					<g>
						
							<rect x="1930.257" y="1551.475" transform="matrix(0.1821 -0.9833 0.9833 0.1821 42.2474 3177.7051)" width="2.153" height="23.963"/>
					</g>
				</g>
			</g>
			<g>
				<g>
					<g>
						
							<rect x="1937.25" y="1580.689" transform="matrix(0.6471 -0.7624 0.7624 0.6471 -511.1661 2059.1162)" width="63.221" height="2.153"/>
					</g>
				</g>
			</g>
		</g>
		<path style="fill:#FC9168;" d="M1708.914,1404.207c-0.243-0.629-0.494-1.25-0.746-1.878c-0.324-0.809-0.647-1.609-0.98-2.418
			v-0.009c-1.105-2.723-2.22-5.411-3.352-8.053c-0.243-0.566-0.485-1.133-0.737-1.699c-0.243-0.575-0.494-1.141-0.746-1.708
			c-5.087-11.585-10.381-22.029-15.648-29.966c-0.404-0.62-0.818-1.222-1.223-1.807c-0.979-1.402-1.95-2.714-2.921-3.928
			c-11.352-14.174-20.546-22.056-27.368-26.415l-2.124-0.962l-2.164-1.431l-12.962-2.918l-8.087,12.924l-0.045-0.036l-0.018-0.018
			l-0.018-0.018l-4.242-3.254l-0.737-0.557l-2.283-1.753l-0.836,0.332l-15.208,6.067c0,0,17.357,71.473,36.101,143.877
			l75.055-50.971C1714.881,1419.822,1711.958,1411.91,1708.914,1404.207z"/>
		<g>
			<polygon style="fill:#FE9F73;" points="1645.136,1345.664 1645.541,1344.891 1626.046,1329.953 1625.534,1330.619 			"/>
		</g>
		<path d="M1622.981,1403.995c18.809,75.079,47.94,188.268,59.706,217.433l1.793-0.724
			c-11.738-29.097-40.868-142.304-59.662-217.332L1622.981,1403.995z"/>
		<g>
			<g>
				
					<rect x="1727.019" y="1423.206" transform="matrix(0.954 -0.2998 0.2998 0.954 -358.1177 585.1187)" width="1.934" height="73.093"/>
			</g>
		</g>
		<g>
			<g>
				<g>
					<path style="fill:#FC4F68;" d="M1636.682,1376.773l5.795-1.618c22.046-11.896-5.174-76.066-10.908-88.819
						c-2.84-6.317-6.197-7.909-8.862-7.909c0,0-8.462-1.608-13.848,4.546c-1.823,1.762-3.344,4.938-3.368,10.644
						c-0.061,14.371,1.081,85.821,25.395,84.775L1636.682,1376.773z"/>
				</g>
			</g>
			<g>
				<g>
					<path d="M1609.642,1283.716l0.075-0.079c4.842-5.531,12.583-4.134,12.661-4.118l0.658-2.183c-0.374-0.071-9.191-1.657-15,4.932
						c-2.436,2.382-3.682,6.235-3.704,11.451c-0.062,14.518,0.925,86.884,26.496,85.783l0.142-0.006l5.935-1.658l-0.445-2.13
						l-5.651,1.578c-23.827,0.729-24.194-75.106-24.157-83.772C1606.671,1288.912,1607.677,1285.615,1609.642,1283.716z"/>
				</g>
			</g>
		</g>
	</g>
	<g>
		<g>
			<g>
				<path style="fill:#F98178;" d="M495.863,1549.379c53.578,11.096-90.023,144.441-90.023,144.441s-70.079,15.952-69.136-13.156
					c0.943-29.107,31.639-190.424,37.121-192.715C373.826,1487.949,442.286,1538.282,495.863,1549.379z"/>
			</g>
		</g>
		<g>
			<g>
				<g>
					<g>
						<path style="fill:#F98178;" d="M437.683,1749.53l13.329-26.48l26.572,42.342
							C475.397,1764.907,437.683,1749.53,437.683,1749.53z"/>
					</g>
				</g>
				<g>
					<g>
						<g>
							<path style="fill:#49263E;" d="M533.14,1757.229c1.296,4.214-9.663,13.644-12.638,15.331
								c-2.975,1.687-31.428-11.184-31.428-11.184l20.019-31.957C509.093,1729.419,531.845,1753.015,533.14,1757.229z"/>
						</g>
					</g>
				</g>
				<g>
					<g>
						<g>
							<path style="fill:#F98178;" d="M514.905,1756.655c-5.061,19.697-54.149,9.96-68.572-8.543
								c-14.423-18.502,17.173-62.784,17.173-62.784S523.934,1721.517,514.905,1756.655z"/>
						</g>
					</g>
				</g>
				<g>
					<g>
						<g>
							<path d="M492.569,1708.281l1.629-1.475c1.156,1.276,28.223,31.46,22.203,48.716c-6.091,17.46-33.673,13.124-34.82,13.005
								l0.228-2.186c0.263,0.027,26.999,4.275,32.517-11.543C519.919,1738.766,492.843,1708.583,492.569,1708.281z"/>
						</g>
					</g>
				</g>
				<g>
					<g>
						<g>
							<path d="M508.297,1730.177l1.593-1.516c0.061,0.064,6.143,6.461,12.122,13.059c12.401,13.685,12.295,14.843,12.224,15.609
								c-0.244,2.642-5.784,12.612-13.255,16.219l-0.956-1.979c6.721-3.245,11.66-12.274,12.007-14.329
								c-0.004-0.012-0.009-0.024-0.014-0.036C531.11,1754.891,519.227,1741.666,508.297,1730.177z"/>
						</g>
					</g>
				</g>
			</g>
			<g>
				<g>
					<g>
						<path style="fill:#F98178;" d="M414.733,1790.785l8.559-17.003l17.062,27.188
							C438.95,1800.658,414.733,1790.785,414.733,1790.785z"/>
					</g>
				</g>
				<g>
					<g>
						<g>
							<path style="fill:#49263E;" d="M476.027,1795.728c0.832,2.706-6.205,8.761-8.115,9.844c-1.91,1.083-20.18-7.181-20.18-7.181
								l12.854-20.52C460.586,1777.871,475.195,1793.022,476.027,1795.728z"/>
						</g>
					</g>
				</g>
				<g>
					<g>
						<g>
							<path style="fill:#F98178;" d="M464.318,1795.36c-3.25,12.647-34.769,6.395-44.03-5.485
								c-9.261-11.88,11.027-40.314,11.027-40.314S470.116,1772.798,464.318,1795.36z"/>
						</g>
					</g>
				</g>
				<g>
					<g>
						<g>
							<path d="M449.976,1764.298l1.046-0.947c0.742,0.82,18.122,20.201,14.257,31.281c-3.911,11.211-21.622,8.427-22.358,8.351
								l0.146-1.404c0.169,0.018,17.336,2.745,20.879-7.411C467.538,1783.873,450.152,1764.492,449.976,1764.298z"/>
						</g>
					</g>
				</g>
				<g>
					<g>
						<g>
							<path d="M460.075,1778.358l1.023-0.973c0.039,0.041,3.945,4.149,7.784,8.385c7.962,8.787,7.895,9.531,7.849,10.023
								c-0.157,1.697-3.714,8.098-8.511,10.414l-0.614-1.271c4.316-2.084,7.487-7.882,7.709-9.201
								c-0.003-0.008-0.006-0.015-0.009-0.023C474.723,1794.227,467.093,1785.735,460.075,1778.358z"/>
						</g>
					</g>
				</g>
			</g>
			<g>
				<g>
					<path style="fill:#F98178;" d="M473.034,1681.336l9.81-27.975l31.802,38.57C512.415,1691.73,473.034,1681.336,473.034,1681.336
						z"/>
				</g>
			</g>
			<g>
				<g>
					<g>
						<path style="fill:#49263E;" d="M568.689,1676.683c1.827,4.012-7.826,14.774-10.559,16.83
							c-2.733,2.056-32.606-7.045-32.606-7.045l15.739-34.267C541.262,1652.2,566.862,1672.671,568.689,1676.683z"/>
					</g>
				</g>
			</g>
			<g>
				<g>
					<g>
						<path style="fill:#F98178;" d="M550.531,1678.461c-2.484,20.184-52.416,16.847-69.101,0.355
							c-16.685-16.492,8.949-64.473,8.949-64.473S554.962,1642.454,550.531,1678.461z"/>
					</g>
				</g>
			</g>
			<g>
				<g>
					<g>
						<path d="M522.154,1633.364l1.426-1.672c1.31,1.117,32.038,27.565,28.289,45.453c-3.792,18.099-31.703,17.35-32.856,17.379
							l-0.056-2.198c0.265-0.007,27.325,0.764,30.76-15.632C553.201,1660.075,522.465,1633.629,522.154,1633.364z"/>
					</g>
				</g>
			</g>
			<g>
				<g>
					<g>
						<path d="M567.572,1676.804c-1.198-2.178-14.684-13.763-27.002-23.749l1.385-1.708c0.068,0.055,6.924,5.617,13.702,11.39
							c14.059,11.975,14.103,13.137,14.131,13.906c0.098,2.652-4.112,13.252-11.056,17.791l-1.203-1.84
							c6.247-4.083,9.983-13.673,10.062-15.755C567.585,1676.827,567.578,1676.815,567.572,1676.804z"/>
					</g>
				</g>
			</g>
		</g>
		<g>
			<g>
				
					<rect x="271.587" y="1468.837" transform="matrix(0.5136 -0.8581 0.8581 0.5136 -1104.2643 991.7459)" width="101.948" height="1.934"/>
			</g>
		</g>
		<polygon style="fill:#FFB294;" points="153.62,1813.615 69.72,2000 334.721,2000 388.422,1840.942 164.654,1783.094 		"/>
		<g>
			<path style="fill:#FE9F73;" d="M440.721,1435.248l-0.438-0.136C441.289,1430.985,446.203,1410.919,440.721,1435.248z"/>
		</g>
		<g>
			<g>
				<polygon style="fill:#FE9F73;" points="528.08,1516.274 527.867,1515.428 550.309,1505.452 550.652,1506.218 				"/>
			</g>
			<path style="fill:#FFB294;" d="M185.709,1692.055C185.709,1692.055,185.711,1692.047,185.709,1692.055
				c-3.862,16.746-7.737,34.234-11.489,50.6c-19.767,86.143-36.701,160.979-36.701,160.979l179.221,81.97
				c0,0,81.945-170.991,110.043-210.427c28.087-39.429,141.452-260.538,141.452-260.538l-13.372-9.448l-0.735-0.518l-2.629,1.172
				l-0.846,0.37l-4.884,2.174l-0.022,0.013l-0.022,0.013l-0.052,0.024l-6.889-15.487l-11.243,0.845l-2.438,0.887l-2.29,0.44
				c-7.651,2.647-18.431,8.166-32.777,19.299c-1.227,0.953-2.477,2.003-3.757,3.138c-0.53,0.474-1.072,0.963-1.61,1.471
				c-6.974,6.488-14.558,15.408-22.209,25.487c-0.377,0.492-0.754,0.984-1.124,1.486c-0.377,0.492-0.745,0.986-1.113,1.48
				c-1.718,2.305-3.429,4.658-5.139,7.048l-0.002,0.009c-0.512,0.709-1.013,1.411-1.517,2.122c-0.391,0.553-0.781,1.097-1.164,1.652
				c-25.989,37.039-49.948,80.989-49.948,80.989c-5.024-7.953-10.373-28.867-1.682-56.183l-127,64.146L185.709,1692.055z"/>
			<path style="fill:#FE9F73;" d="M191.41,1668.02c0,0-0.002,0.009-0.004,0.018l0.011-0.007L191.41,1668.02z"/>
			<path style="fill:#FFB294;" d="M204.68,1610.995l1.137-0.578l210.643-107.031c0.252-1.049,23.163-65.061,23.618-67.383
				l0.002-0.009c0.021-0.124,0.035-0.186,0.035-0.186s0.219,0.052,0.631,0.142c2.512,0.547,12.34,2.693,25.959,5.49
				c0.221,0.044,0.43,0.094,0.651,0.138c0.432,0.085,0.863,0.179,1.304,0.267c12.299,2.517,27.422,5.518,42.961,8.36
				c2.33,0.42,4.678,0.845,7.018,1.259l1.43-0.72l62.887-31.955l1.178-0.596c-56.845-20.722-164.627-59.741-171.871-60.371
				c-9.881-0.846-56.091,55.132-75.933,86.353c-19.833,31.224-91.425,12.795-102.216,46.512
				C230.556,1501.824,218.809,1550.618,204.68,1610.995z"/>
		</g>
		<g>
			<g>
				<path d="M619.635,1430.144l-0.534-0.202l0.526,1.041c0.001-0.083,0.005-0.137,0.003-0.166L619.635,1430.144z"/>
				<path d="M439.356,1434.657l-0.196,0.97c-0.015,0.061,0.305,0.193,0.917,0.377c6.113,1.874,41.834,9.67,77.33,16.09l1.232-0.629
					l1.43-0.72c-39.506-7.004-79.16-15.744-79.748-15.876L439.356,1434.657z"/>
				<path d="M203.563,1611.568c-0.109,0.454-0.21,0.911-0.327,1.363c-0.1,0.457-0.212,0.92-0.323,1.383
					c-1.781,7.651-3.599,15.46-5.445,23.382c-0.239,1.033-0.477,2.067-0.727,3.107c-1.734,7.459-3.481,15.007-5.239,22.599
					c-0.122,0.507-0.234,1.016-0.358,1.532c-0.13,0.579-0.271,1.165-0.402,1.752c-0.153,0.638-0.298,1.278-0.442,1.918
					c-1.909,8.221-3.816,16.479-5.712,24.723l-0.002,0.009c-3.839,16.613-7.638,33.134-11.304,49.104l0.937,0.216l0.948,0.209
					c3.777-16.471,7.706-33.533,11.653-50.675c1.759-7.601,3.523-15.219,5.28-22.811c0.132-0.588,0.272-1.173,0.404-1.761
					l0.04-0.166c0.1-0.457,0.207-0.902,0.316-1.357c1.757-7.592,3.507-15.149,5.243-22.616c0.538-2.32,1.073-4.623,1.607-6.926
					c1.848-7.931,3.666-15.739,5.456-23.388c0.111-0.463,0.214-0.929,0.323-1.383l0.327-1.363
					c13.93-59.547,25.668-108.343,29.217-119.434c5.391-16.841,26.62-20.259,49.097-23.868c21.238-3.416,43.187-6.948,53.017-22.41
					c9.806-15.44,26.143-37.067,41.619-55.102c19.85-23.132,30.28-31.083,33.413-30.811c7.065,0.605,113.727,39.207,170.777,59.997
					l1.178-0.596l1.189-0.602c-56.768-20.695-165.533-60.088-172.977-60.729c-11.04-0.948-58.3,57.634-76.826,86.805
					c-9.366,14.723-30.884,18.192-51.698,21.534c-23.075,3.715-44.879,7.217-50.627,25.201
					C229.595,1501.63,217.666,1551.259,203.563,1611.568z"/>
			</g>
		</g>
		<g>
			<g>
				<path d="M410.568,1648.652l-1.432,1.298c-0.725-0.798-17.699-19.798-14.055-41.123l1.906,0.325
					C393.503,1629.538,410.397,1648.463,410.568,1648.652z"/>
			</g>
		</g>
		<g>
			<g>
				<g>
					<g>
						<g>
							
								<rect x="331.855" y="1295.814" transform="matrix(-0.453 -0.8915 0.8915 -0.453 -868.2604 2599.8127)" style="fill:#CF353E;" width="63.221" height="540.932"/>
						</g>
					</g>
				</g>
				<g>
					<g>
						<g>
							
								<rect x="351.307" y="1295.814" transform="matrix(-0.453 -0.8915 0.8915 -0.453 -868.2592 2599.8142)" style="fill:#FF424D;" width="24.316" height="540.931"/>
						</g>
					</g>
				</g>
				<g>
					<g>
						<g>
							
								<rect x="134.088" y="1658.804" transform="matrix(-0.453 -0.8915 0.8915 -0.453 -1245.1957 2569.5061)" style="fill:#FFFFFF;" width="63.221" height="15.922"/>
						</g>
					</g>
				</g>
				<g>
					<g>
						<g>
							<path style="fill:#FFCD70;" d="M96.531,1701.91L96.531,1701.91c7.908,15.564,26.936,21.771,42.5,13.862l33.889-17.219
								l-28.638-56.363l-33.889,17.219C94.829,1667.318,88.622,1686.346,96.531,1701.91z"/>
						</g>
					</g>
				</g>
				<g>
					<g>
						<g>
							<path style="fill:#F7D6B2;" d="M675.921,1407.52l-57.012,64.425l0,0c-4.703,2.39-10.489,0.445-12.922-4.344
								c-2.433-4.789-0.593-10.608,4.11-12.998c-4.703,2.39-10.982-0.526-14.024-6.512c-3.042-5.986-1.694-12.776,3.009-15.166
								c-4.703,2.39-10.489,0.445-12.922-4.344c-2.433-4.789-0.593-10.608,4.111-12.998l0,0L675.921,1407.52z"/>
						</g>
					</g>
				</g>
				<g>
					<g>
						<g>
							<path style="fill:#CF353E;" d="M618.909,1471.944c0,0-12.337-6.005-8.812-17.342l-10.052,5.107l8.812,17.342
								L618.909,1471.944z"/>
						</g>
					</g>
				</g>
				<g>
					<g>
						<g>
							<path style="fill:#CF353E;" d="M599.083,1432.924c0,0-12.337-6.005-8.812-17.342l-10.052,5.107l8.812,17.342
								L599.083,1432.924z"/>
						</g>
					</g>
				</g>
				<g>
					<g>
						<g>
							<path style="fill:#FF424D;" d="M610.098,1454.602c0,0-14.231-4.588-11.015-21.678l-10.052,5.107l11.015,21.678
								L610.098,1454.602z"/>
						</g>
					</g>
				</g>
				<g>
					<g>
						<g>
							<path style="fill:#FF424D;" d="M656.986,1428.917c0,0-11.064-5.16-9.512-18.72l28.447-2.678L656.986,1428.917z"/>
						</g>
					</g>
				</g>
			</g>
			<g>
				<g>
					<g>
						<path d="M95.569,1702.393c-7.519-14.964-3.201-26.14,1.744-32.88c5.314-7.242,12.291-10.907,12.585-11.059l480.069-243.925
							l0.204-0.019l88.362-8.317l-36.717,41.49l-1.612-1.426l33.106-37.41l-82.733,7.787L110.881,1660.37
							c-0.06,0.031-6.867,3.618-11.875,10.477c-6.635,9.085-7.144,19.374-1.513,30.581L95.569,1702.393z"/>
					</g>
				</g>
			</g>
			<g>
				<g>
					<g>
						
							<rect x="229.132" y="1589.724" transform="matrix(0.8912 -0.4535 0.4535 0.8912 -679.6357 347.5279)" width="311.288" height="2.153"/>
					</g>
				</g>
			</g>
			<g>
				<g>
					<g>
						
							<rect x="206.962" y="1640.203" transform="matrix(0.0523 -0.9986 0.9986 0.0523 -1452.7638 1773.548)" width="2.153" height="23.963"/>
					</g>
				</g>
			</g>
			<g>
				<g>
					<g>
						
							<rect x="129.892" y="1689.114" transform="matrix(0.0523 -0.9986 0.9986 0.0523 -1569.4829 1737.9473)" width="2.153" height="13.614"/>
					</g>
				</g>
			</g>
			<g>
				<g>
					<g>
						
							<rect x="120.175" y="1695.956" transform="matrix(0.0524 -0.9986 0.9986 0.0524 -1585.5247 1734.6514)" width="2.153" height="13.614"/>
					</g>
				</g>
			</g>
			<g>
				<g>
					<g>
						
							<rect x="198.236" y="1649.369" transform="matrix(0.0523 -0.9986 0.9986 0.0523 -1470.192 1773.4403)" width="2.153" height="23.963"/>
					</g>
				</g>
			</g>
			<g>
				<g>
					<g>
						
							<rect x="157.474" y="1638.787" transform="matrix(0.8923 -0.4514 0.4514 0.8923 -736.9034 251.4088)" width="2.153" height="63.221"/>
					</g>
				</g>
			</g>
		</g>
		<path style="fill:#FFB294;" d="M452.754,1558.402c0.383-0.555,0.772-1.099,1.164-1.652c0.503-0.711,1.005-1.414,1.517-2.123
			l0.002-0.009c1.711-2.39,3.421-4.743,5.139-7.048c0.368-0.494,0.736-0.988,1.113-1.48c0.37-0.503,0.747-0.995,1.124-1.486
			c7.65-10.078,15.235-18.999,22.209-25.487c0.538-0.509,1.08-0.998,1.61-1.471c1.28-1.135,2.53-2.184,3.757-3.138
			c14.346-11.134,25.126-16.653,32.777-19.3l2.29-0.44l2.438-0.887l13.285,0.188l4.847,14.455l0.052-0.025l0.022-0.013l0.022-0.013
			l4.884-2.174l0.846-0.37l2.629-1.172l0.735,0.518l13.372,9.448c0,0-33.557,65.449-68.679,131.48l-61.088-67.079
			C443.309,1572.194,447.997,1565.182,452.754,1558.402z"/>
		<g>
			<polygon style="fill:#FE9F73;" points="528.433,1516.359 528.22,1515.513 550.663,1505.537 551.005,1506.303 			"/>
		</g>
		<path d="M536.365,1578.249c-35.81,68.617-90.551,171.883-108.798,197.497l-1.574-1.122
			c18.204-25.554,72.948-128.838,108.732-197.408L536.365,1578.249z"/>
		<g>
			<g>
				
					<rect x="384.7" y="1606.997" transform="matrix(0.5141 -0.8577 0.8577 0.5141 -1174.4941 1142.5547)" width="73.093" height="1.934"/>
			</g>
		</g>
		<g>
			<g>
				<g>
					<path style="fill:#49263E;" d="M529.394,1548.582l-5.257-2.925c-18.661-16.713,22.782-72.759,31.334-83.822
						c4.236-5.48,7.871-6.245,10.463-5.623c0,0,8.603,0.411,12.405,7.652c1.362,2.139,2.099,5.582,0.791,11.136
						c-3.294,13.989-21.078,83.2-44.477,76.508L529.394,1548.582z"/>
				</g>
			</g>
			<g>
				<g>
					<path d="M577.404,1464.404l-0.055-0.094c-3.417-6.508-11.271-6.956-11.35-6.959l-0.13-2.277
						c0.38,0.018,9.324,0.533,13.435,8.297c1.812,2.885,2.125,6.922,0.93,12c-3.328,14.132-21.175,84.269-45.783,77.232
						l-0.137-0.039l-5.384-2.997l0.93-1.968l5.127,2.853c22.999,6.269,41.053-67.387,43.039-75.821
						C579.08,1470.15,578.871,1466.709,577.404,1464.404z"/>
				</g>
			</g>
		</g>
	</g>
</g>
</svg>
